# This file uses centimeters as units for non-parametric coordinates.

mtllib BasicRoomTex.mtl
g default
v -22.760891 -0.003761 21.366261
v 22.683630 -0.003761 21.366261
v -22.760891 -0.003761 -21.366495
v 22.683630 -0.003761 -21.366495
v -22.801487 25.225040 -21.364386
v -22.801487 -0.169680 -21.364386
v 22.849934 25.225040 -21.364386
v 22.849934 -0.169680 -21.364386
v 22.619659 -0.169680 21.399162
v 22.619659 25.225040 21.399162
v 22.619659 -0.169680 -21.399071
v 22.619659 25.225040 -21.399071
v -22.687897 25.225040 21.399162
v -22.687897 -0.169680 21.399162
v -22.687897 25.225040 -21.399071
v -22.687897 -0.169680 -21.399071
v 22.849934 25.225040 21.359802
v 22.849934 -0.169680 21.359802
v -22.801487 25.225040 21.359802
v -22.801487 -0.169680 21.359802
vt 0.998170 0.000585
vt 1.002647 0.487957
vt 0.000644 0.001589
vt -0.000612 0.490828
vt -0.002358 0.999826
vt 0.002642 0.492212
vt 1.000000 1.002184
vt 0.997642 0.489996
vt -0.002358 0.999826
vt 0.002642 0.492212
vt 1.000000 1.002184
vt 0.997642 0.489996
vt -0.002358 0.999826
vt 0.002642 0.492212
vt 1.000000 1.002184
vt 0.997642 0.489996
vt -0.002358 0.999826
vt 0.002642 0.492212
vt 1.000000 1.002184
vt 0.997642 0.489996
vt 0.002642 0.492212
vt 1.000000 1.002184
vt 0.002642 0.492212
vt 1.000000 1.002184
vt 0.002642 0.492212
vt 1.000000 1.002184
vt 0.002642 0.492212
vt 1.000000 1.002184
vn 0.000000 1.000000 0.000000
vn 0.000000 1.000000 0.000000
vn 0.000000 1.000000 0.000000
vn 0.000000 1.000000 0.000000
vn 0.000000 0.000000 1.000000
vn 0.000000 0.000000 1.000000
vn 0.000000 0.000000 1.000000
vn 0.000000 0.000000 1.000000
vn -1.000000 0.000000 0.000000
vn -1.000000 0.000000 0.000000
vn -1.000000 0.000000 0.000000
vn -1.000000 0.000000 0.000000
vn 1.000000 0.000000 0.000000
vn 1.000000 0.000000 0.000000
vn 1.000000 0.000000 0.000000
vn 1.000000 0.000000 0.000000
vn 0.000000 0.000000 -1.000000
vn 0.000000 0.000000 -1.000000
vn 0.000000 0.000000 -1.000000
vn 0.000000 0.000000 -1.000000
s 1
g polySurface1
usemtl initialShadingGroup
f 1/1/1 2/2/2 3/3/3
f 3/3/3 2/2/2 4/4/4
s 2
f 5/5/5 6/6/6 7/28/7
f 7/7/7 6/27/6 8/8/8
s 3
f 9/9/9 10/10/10 11/26/11
f 11/11/11 10/25/10 12/12/12
s 4
f 13/13/13 14/14/14 15/24/15
f 15/15/15 14/23/14 16/16/16
s 5
f 17/17/17 18/18/18 19/22/19
f 19/19/19 18/21/18 20/20/20
