# This file uses centimeters as units for non-parametric coordinates.

mtllib Room2.mtl
g default
v -22.760891 -0.003761 21.366261
v 22.683630 -0.003761 21.366261
v -22.760891 -0.003761 -21.366495
v 22.683630 -0.003761 -21.366495
v 22.619659 -0.169680 21.399162
v 22.619659 25.225040 21.399162
v 22.619659 -0.169680 -21.399071
v 22.619659 25.225040 -21.399071
v 22.849934 25.225040 21.359802
v 22.849934 -0.169680 21.359802
v -22.801487 25.225040 21.359802
v -22.801487 -0.169680 21.359802
v -22.801487 25.225040 -21.364386
v -22.801487 -0.169680 -21.364386
v -4.218629 25.225040 -21.364386
v -4.397367 10.068063 -21.364386
v -4.212699 -0.169680 -21.364386
v -4.394829 10.069474 -21.364384
v 22.849934 25.225040 -21.364386
v 22.849934 -0.169680 -21.364386
v 3.984630 25.225040 -21.364386
v 4.025270 14.753361 -21.364386
v 4.008684 -0.169680 -21.364386
v 4.029425 14.755672 -21.364386
v -5.574295 0.000000 -20.133394
v -3.390073 0.000000 -20.133394
v -5.574295 25.259676 -20.133394
v -3.390073 25.259676 -20.133394
v -5.574295 25.259676 -22.665785
v -3.390073 25.259676 -22.665785
v -5.574295 0.000000 -22.665785
v -3.390073 0.000000 -22.665785
v 3.520960 0.000000 -20.133394
v 5.705181 0.000000 -20.133394
v 3.520960 25.259676 -20.133394
v 5.705181 25.259676 -20.133394
v 3.520960 25.259676 -22.665785
v 5.705181 25.259676 -22.665785
v 3.520960 0.000000 -22.665785
v 5.705181 0.000000 -22.665785
v 4.032654 24.812923 -21.295792
v 4.032654 24.812923 -28.758461
v 4.032654 -0.039313 -21.295792
v 4.032654 -0.039313 -28.758461
v -4.046601 24.812923 -21.295792
v -4.046601 24.812923 -28.758461
v -4.046601 -0.039313 -21.295792
v -4.046601 -0.039313 -28.758461
v 4.034530 -0.000000 -21.241690
v 4.034530 -0.000000 -28.704359
v -4.049197 0.000000 -21.241690
v -4.049197 0.000000 -28.704359
v -21.364386 25.225040 -22.373428
v -21.364386 -0.169680 -22.373428
v -21.364386 25.225040 -3.508125
v -21.364386 14.753361 -3.548767
v -21.364386 -0.169680 -3.532181
v -21.364386 14.755672 -3.552917
v -20.133394 0.000000 -3.044456
v -20.133394 0.000000 -5.228676
v -20.133394 25.259676 -3.044456
v -20.133394 25.259676 -5.228676
v -22.665785 25.259676 -3.044456
v -22.665785 25.259676 -5.228676
v -22.665785 0.000000 -3.044456
v -22.665785 0.000000 -5.228676
v -21.295792 24.812923 -3.556149
v -28.758461 24.812923 -3.556149
v -21.295792 -0.039313 -3.556149
v -28.758461 -0.039313 -3.556149
v -21.241690 -0.000000 -3.558025
v -28.704359 -0.000000 -3.558025
v -21.241690 0.000000 4.525703
v -28.704359 0.000000 4.525703
v -20.133394 0.000000 6.050800
v -20.133394 0.000000 3.866577
v -20.133394 25.259676 6.050800
v -20.133394 25.259676 3.866577
v -22.665785 25.259676 6.050800
v -22.665785 25.259676 3.866577
v -22.665785 0.000000 6.050800
v -22.665785 0.000000 3.866577
v -21.295792 24.812923 4.523106
v -28.758461 24.812923 4.523106
v -21.295792 -0.039313 4.523106
v -28.758461 -0.039313 4.523106
v -21.364386 25.225040 23.277992
v -21.364386 -0.169680 23.277992
v -21.364386 25.225040 4.695133
v -21.364386 10.068063 4.873871
v -21.364386 -0.169680 4.689205
v -21.364384 10.069474 4.871334
vt 0.844931 0.000585
vt 0.848708 0.487957
vt 0.003370 0.001589
vt 0.002311 0.490828
vt -0.002358 0.999826
vt 0.002642 0.492212
vt 1.000000 1.002184
vt 0.997642 0.489996
vt -0.002358 0.999826
vt 0.002642 0.492212
vt 1.000000 1.002184
vt 0.997642 0.489996
vt 0.002642 0.492212
vt 1.000000 1.002184
vt 0.002642 0.492212
vt 1.000000 1.002184
vt 0.002642 0.492212
vt 0.404722 0.697804
vt -0.002358 0.999826
vt 0.405662 1.000785
vt 0.404777 0.697833
vt 0.404722 0.697804
vt 0.407796 0.491310
vt 0.002642 0.492212
vt 1.000000 1.002184
vt 0.588824 0.791940
vt 0.997642 0.489996
vt 0.586986 0.490911
vt 0.588733 0.791893
vt 0.588824 0.791940
vt 0.585779 1.001209
vt 1.000000 1.002184
vt 0.909981 0.001485
vt 0.947749 0.000532
vt 0.909871 0.122685
vt 0.947638 0.121733
vt 0.909760 0.243886
vt 0.947528 0.242934
vt 0.909649 0.365087
vt 0.947417 0.364134
vt 0.909539 0.486287
vt 0.947306 0.485335
vt 0.985516 -0.000420
vt 0.985406 0.120781
vt 0.872214 0.002437
vt 0.872103 0.123638
vt 0.911901 -0.000092
vt 0.950152 -0.000092
vt 0.911901 0.120961
vt 0.950152 0.120961
vt 0.911901 0.242013
vt 0.950152 0.242013
vt 0.911901 0.363066
vt 0.950152 0.363066
vt 0.911901 0.484119
vt 0.950152 0.484119
vt 0.988403 -0.000092
vt 0.988403 0.120961
vt 0.873650 -0.000092
vt 0.873650 0.120961
vt 0.000000 0.494889
vt 0.300282 0.494889
vt 0.000000 1.001254
vt 0.300282 1.001254
vt 0.000000 0.492774
vt 0.000000 0.998766
vt 0.300282 0.492774
vt 0.300282 0.998766
vt 0.432823 0.250611
vt 0.563550 0.250611
vt 0.432823 0.353560
vt 0.563550 0.353560
vt 1.000000 1.002184
vt 0.588824 0.791940
vt 0.997642 0.489996
vt 0.586986 0.490911
vt 0.588733 0.791893
vt 0.588824 0.791940
vt 0.585779 1.001209
vt 1.000000 1.002184
vt 0.911901 -0.000092
vt 0.950152 -0.000092
vt 0.911901 0.120961
vt 0.950152 0.120961
vt 0.911901 0.242013
vt 0.950152 0.242013
vt 0.911901 0.363066
vt 0.950152 0.363066
vt 0.911901 0.484119
vt 0.950152 0.484119
vt 0.988403 -0.000092
vt 0.988403 0.120961
vt 0.873650 -0.000092
vt 0.873650 0.120961
vt 0.000000 0.494889
vt 0.300282 0.494889
vt 0.000000 1.001254
vt 0.300282 1.001254
vt 0.432823 0.250611
vt 0.563550 0.250611
vt 0.432823 0.353560
vt 0.563550 0.353560
vt 0.909981 0.001485
vt 0.947749 0.000532
vt 0.909871 0.122685
vt 0.947638 0.121733
vt 0.909760 0.243886
vt 0.947528 0.242934
vt 0.909649 0.365087
vt 0.947417 0.364134
vt 0.909539 0.486287
vt 0.947306 0.485335
vt 0.985516 -0.000420
vt 0.985406 0.120781
vt 0.872214 0.002437
vt 0.872103 0.123638
vt 0.000000 0.492774
vt 0.000000 0.998766
vt 0.300282 0.492774
vt 0.300282 0.998766
vt 0.002642 0.492212
vt 0.404722 0.697804
vt -0.002358 0.999826
vt 0.405662 1.000785
vt 0.404777 0.697833
vt 0.404722 0.697804
vt 0.407796 0.491310
vt 0.002642 0.492212
vn 0.000000 1.000000 0.000000
vn 0.000000 1.000000 0.000000
vn 0.000000 1.000000 0.000000
vn 0.000000 1.000000 0.000000
vn -1.000000 0.000000 0.000000
vn -1.000000 0.000000 0.000000
vn -1.000000 0.000000 0.000000
vn -1.000000 0.000000 0.000000
vn 0.000000 0.000000 -1.000000
vn 0.000000 0.000000 -1.000000
vn 0.000000 0.000000 -1.000000
vn 0.000000 0.000000 -1.000000
vn 0.000000 0.000000 1.000000
vn -0.000000 -0.000000 1.000000
vn 0.000000 0.000000 1.000000
vn 0.000000 0.000000 1.000000
vn -0.001163 -0.000013 0.999999
vn -0.000000 -0.000000 1.000000
vn 0.000000 0.000000 1.000000
vn -0.000000 0.000000 1.000000
vn 0.000000 0.000000 1.000000
vn 0.000000 0.000000 1.000000
vn -0.000700 0.000000 1.000000
vn -0.000000 0.000000 1.000000
vn 0.000000 0.000000 1.000000
vn 0.000000 0.000000 1.000000
vn 0.000000 0.000000 1.000000
vn 0.000000 0.000000 1.000000
vn 0.000000 1.000000 0.000000
vn 0.000000 1.000000 0.000000
vn 0.000000 1.000000 0.000000
vn 0.000000 1.000000 0.000000
vn 0.000000 0.000000 -1.000000
vn 0.000000 0.000000 -1.000000
vn 0.000000 0.000000 -1.000000
vn 0.000000 0.000000 -1.000000
vn 0.000000 -1.000000 0.000000
vn 0.000000 -1.000000 0.000000
vn 0.000000 -1.000000 0.000000
vn 0.000000 -1.000000 0.000000
vn 1.000000 0.000000 0.000000
vn 1.000000 0.000000 0.000000
vn 1.000000 0.000000 0.000000
vn 1.000000 0.000000 0.000000
vn -1.000000 0.000000 0.000000
vn -1.000000 0.000000 0.000000
vn -1.000000 0.000000 0.000000
vn -1.000000 0.000000 0.000000
vn 0.000000 0.000000 1.000000
vn 0.000000 0.000000 1.000000
vn 0.000000 0.000000 1.000000
vn 0.000000 0.000000 1.000000
vn 0.000000 1.000000 0.000000
vn 0.000000 1.000000 0.000000
vn 0.000000 1.000000 0.000000
vn 0.000000 1.000000 0.000000
vn 0.000000 0.000000 -1.000000
vn 0.000000 0.000000 -1.000000
vn 0.000000 0.000000 -1.000000
vn 0.000000 0.000000 -1.000000
vn 0.000000 -1.000000 0.000000
vn 0.000000 -1.000000 0.000000
vn 0.000000 -1.000000 0.000000
vn 0.000000 -1.000000 0.000000
vn 1.000000 0.000000 0.000000
vn 1.000000 0.000000 0.000000
vn 1.000000 0.000000 0.000000
vn 1.000000 0.000000 0.000000
vn -1.000000 0.000000 0.000000
vn -1.000000 0.000000 0.000000
vn -1.000000 0.000000 0.000000
vn -1.000000 0.000000 0.000000
vn -1.000000 0.000000 0.000000
vn -1.000000 0.000000 0.000000
vn -1.000000 0.000000 0.000000
vn -1.000000 0.000000 0.000000
vn 1.000000 0.000000 0.000000
vn 1.000000 0.000000 0.000000
vn 1.000000 0.000000 0.000000
vn 1.000000 0.000000 0.000000
vn 0.000000 1.000000 0.000000
vn 0.000000 1.000000 0.000000
vn 0.000000 1.000000 0.000000
vn 0.000000 1.000000 0.000000
vn 1.000000 0.000000 0.000000
vn 1.000000 -0.000000 0.000000
vn 1.000000 0.000000 0.000000
vn 1.000000 0.000000 0.000000
vn 1.000000 -0.000003 0.000000
vn 1.000000 -0.000000 0.000000
vn 1.000000 0.000000 0.000000
vn 1.000000 0.000000 0.000000
vn 1.000000 0.000000 0.000000
vn 1.000000 0.000000 0.000000
vn 0.000000 1.000000 0.000000
vn 0.000000 1.000000 0.000000
vn 0.000000 1.000000 0.000000
vn 0.000000 1.000000 0.000000
vn -1.000000 0.000000 0.000000
vn -1.000000 0.000000 0.000000
vn -1.000000 0.000000 0.000000
vn -1.000000 0.000000 0.000000
vn 0.000000 -1.000000 0.000000
vn 0.000000 -1.000000 0.000000
vn 0.000000 -1.000000 0.000000
vn 0.000000 -1.000000 0.000000
vn 0.000000 0.000000 -1.000000
vn 0.000000 0.000000 -1.000000
vn 0.000000 0.000000 -1.000000
vn 0.000000 0.000000 -1.000000
vn 0.000000 0.000000 1.000000
vn 0.000000 0.000000 1.000000
vn 0.000000 0.000000 1.000000
vn 0.000000 0.000000 1.000000
vn 0.000000 0.000000 1.000000
vn 0.000000 0.000000 1.000000
vn 0.000000 0.000000 1.000000
vn 0.000000 0.000000 1.000000
vn 0.000000 1.000000 -0.000000
vn 0.000000 1.000000 -0.000000
vn 0.000000 1.000000 -0.000000
vn 0.000000 1.000000 -0.000000
vn 1.000000 0.000000 0.000000
vn 1.000000 0.000000 0.000000
vn 1.000000 0.000000 0.000000
vn 1.000000 0.000000 0.000000
vn 0.000000 1.000000 0.000000
vn 0.000000 1.000000 0.000000
vn 0.000000 1.000000 0.000000
vn 0.000000 1.000000 0.000000
vn -1.000000 0.000000 0.000000
vn -1.000000 0.000000 0.000000
vn -1.000000 0.000000 0.000000
vn -1.000000 0.000000 0.000000
vn 0.000000 -1.000000 0.000000
vn 0.000000 -1.000000 0.000000
vn 0.000000 -1.000000 0.000000
vn 0.000000 -1.000000 0.000000
vn 0.000000 0.000000 -1.000000
vn 0.000000 0.000000 -1.000000
vn 0.000000 0.000000 -1.000000
vn 0.000000 0.000000 -1.000000
vn 0.000000 0.000000 1.000000
vn 0.000000 0.000000 1.000000
vn 0.000000 0.000000 1.000000
vn 0.000000 0.000000 1.000000
vn 0.000000 0.000000 -1.000000
vn 0.000000 0.000000 -1.000000
vn 0.000000 0.000000 -1.000000
vn 0.000000 0.000000 -1.000000
vn 1.000000 0.000000 0.000000
vn 1.000000 0.000000 0.000000
vn 1.000000 -0.000000 0.000000
vn 1.000000 -0.000000 0.000000
vn 1.000000 -0.000036 0.000744
vn 1.000000 0.000000 0.000000
s 1
g polySurface11
usemtl initialShadingGroup
f 1/1/1 2/2/2 3/3/3
f 3/3/3 2/2/2 4/4/4
s 2
f 5/5/5 6/6/6 7/16/7
f 7/7/7 6/15/6 8/8/8
s 3
f 9/9/9 10/10/10 11/14/11
f 11/11/11 10/13/10 12/12/12
s 4
f 14/17/13 16/18/14 13/19/15
f 13/19/15 16/18/14 15/20/16
f 18/21/17 16/22/14 17/23/18
f 17/23/18 16/22/14 14/24/13
s 5
f 19/25/19 24/26/20 20/27/21
f 20/27/21 24/26/20 23/28/22
f 22/29/23 24/30/20 21/31/24
f 21/31/24 24/30/20 19/32/19
s 6
f 25/33/25 26/34/26 27/35/27
f 27/35/27 26/34/26 28/36/28
s 7
f 27/35/29 28/36/30 29/37/31
f 29/37/31 28/36/30 30/38/32
s 8
f 29/37/33 30/38/34 31/39/35
f 31/39/35 30/38/34 32/40/36
s 9
f 31/39/37 32/40/38 25/41/39
f 25/41/39 32/40/38 26/42/40
s 10
f 26/34/41 32/43/42 28/36/43
f 28/36/43 32/43/42 30/44/44
s 11
f 31/45/45 25/33/46 29/46/47
f 29/46/47 25/33/46 27/35/48
s 12
f 33/47/49 34/48/50 35/49/51
f 35/49/51 34/48/50 36/50/52
s 13
f 35/49/53 36/50/54 37/51/55
f 37/51/55 36/50/54 38/52/56
s 14
f 37/51/57 38/52/58 39/53/59
f 39/53/59 38/52/58 40/54/60
s 15
f 39/53/61 40/54/62 33/55/63
f 33/55/63 40/54/62 34/56/64
s 16
f 34/48/65 40/57/66 36/50/67
f 36/50/67 40/57/66 38/58/68
s 17
f 39/59/69 33/47/70 37/60/71
f 37/60/71 33/47/70 35/49/72
s 18
f 41/61/73 42/62/74 43/63/75
f 43/63/75 42/62/74 44/64/76
s 19
f 45/65/77 47/66/78 46/67/79
f 47/66/78 48/68/80 46/67/79
s 20
f 49/69/81 50/70/82 51/71/83
f 51/71/83 50/70/82 52/72/84
s 21
f 53/73/85 58/74/86 54/75/87
f 54/75/87 58/74/86 57/76/88
f 56/77/89 58/78/86 55/79/90
f 55/79/90 58/78/86 53/80/85
s 22
f 59/81/91 60/82/92 61/83/93
f 61/83/93 60/82/92 62/84/94
s 23
f 61/83/95 62/84/96 63/85/97
f 63/85/97 62/84/96 64/86/98
s 24
f 63/85/99 64/86/100 65/87/101
f 65/87/101 64/86/100 66/88/102
s 25
f 65/87/103 66/88/104 59/89/105
f 59/89/105 66/88/104 60/90/106
s 26
f 60/82/107 66/91/108 62/84/109
f 62/84/109 66/91/108 64/92/110
s 27
f 65/93/111 59/81/112 63/94/113
f 63/94/113 59/81/112 61/83/114
s 28
f 67/95/115 68/96/116 69/97/117
f 69/97/117 68/96/116 70/98/118
s 29
f 71/99/119 72/100/120 73/101/121
f 73/101/121 72/100/120 74/102/122
s 30
f 75/103/123 76/104/124 77/105/125
f 77/105/125 76/104/124 78/106/126
s 31
f 77/105/127 78/106/128 79/107/129
f 79/107/129 78/106/128 80/108/130
s 32
f 79/107/131 80/108/132 81/109/133
f 81/109/133 80/108/132 82/110/134
s 33
f 81/109/135 82/110/136 75/111/137
f 75/111/137 82/110/136 76/112/138
s 34
f 76/104/139 82/113/140 78/106/141
f 78/106/141 82/113/140 80/114/142
s 35
f 81/115/143 75/103/144 79/116/145
f 79/116/145 75/103/144 77/105/146
s 36
f 83/117/147 85/118/148 84/119/149
f 85/118/148 86/120/150 84/119/149
s 37
f 88/121/151 90/122/152 87/123/153
f 87/123/153 90/122/152 89/124/154
f 92/125/155 90/126/152 91/127/156
f 91/127/156 90/126/152 88/128/151
