# This file uses centimeters as units for non-parametric coordinates.

mtllib Room2.mtl
g default
v -22.760891 -0.003761 21.366261
v 22.683630 -0.003761 21.366261
v -22.760891 -0.003761 -21.366495
v 22.683630 -0.003761 -21.366495
v -22.801487 25.225040 -21.364386
v -22.801487 -0.169680 -21.364386
v 22.849934 25.225040 -21.364386
v 22.849934 -0.169680 -21.364386
v 22.619659 -0.169680 21.399162
v 22.619659 25.225040 21.399162
v 22.619659 -0.169680 -21.399071
v 22.619659 25.225040 -21.399071
v -22.687897 25.225040 21.399162
v -22.687897 -0.169680 21.399162
v -22.687897 25.225040 -21.399071
v -22.687897 -0.169680 -21.399071
v 22.849934 25.225040 21.359802
v 22.849934 -0.169680 21.359802
v -22.801487 25.225040 21.359802
v -22.801487 -0.169680 21.359802
v 3.984630 25.225040 -21.364386
v 4.025270 14.753361 -21.364386
v -4.218629 25.225040 -21.364386
v -4.397367 10.068063 -21.364386
v 4.008684 -0.169680 -21.364386
v 4.029425 14.755672 -21.364386
v -4.212699 -0.169680 -21.364386
v -4.394829 10.069474 -21.364384
v -22.687897 25.225040 -5.352909
v -22.687897 15.626613 -5.222647
v -22.687897 25.225040 3.801614
v -22.687897 10.169937 3.973597
v -22.687897 -0.169680 -5.234526
v -22.687897 15.630803 -5.229710
v -22.687897 -0.169680 4.130569
v -22.687897 10.260735 3.820574
v 3.901592 24.812923 -21.295792
v 3.901592 24.812923 -28.758461
v 3.901592 -0.039313 -21.295792
v 3.901592 -0.039313 -28.758461
v 3.389898 0.000000 -20.133394
v 5.574120 0.000000 -20.133394
v 3.389898 25.259676 -20.133394
v 5.574120 25.259676 -20.133394
v 3.389898 25.259676 -22.665785
v 5.574120 25.259676 -22.665785
v 3.389898 0.000000 -22.665785
v 5.574120 0.000000 -22.665785
v -4.177663 24.812923 -21.295792
v -4.177663 24.812923 -28.758461
v -4.177663 -0.039313 -21.295792
v -4.177663 -0.039313 -28.758461
v -5.705356 0.000000 -20.133394
v -3.521135 0.000000 -20.133394
v -5.705356 25.259676 -20.133394
v -3.521135 25.259676 -20.133394
v -5.705356 25.259676 -22.665785
v -3.521135 25.259676 -22.665785
v -5.705356 0.000000 -22.665785
v -3.521135 0.000000 -22.665785
v -22.508902 24.812923 3.340336
v -29.971571 24.812923 3.340336
v -22.508902 -0.039313 3.340336
v -29.971571 -0.039313 3.340336
v -22.454800 -0.000000 -4.740795
v -29.917469 -0.000000 -4.740795
v -22.454800 0.000000 3.342930
v -29.917469 0.000000 3.342930
v -22.508902 24.812923 -4.738918
v -29.971571 24.812923 -4.738918
v -22.508902 -0.039313 -4.738918
v -29.971571 -0.039313 -4.738918
v -21.346504 0.000000 -4.227226
v -21.346504 0.000000 -6.411446
v -21.346504 25.259676 -4.227226
v -21.346504 25.259676 -6.411446
v -23.878895 25.259676 -4.227226
v -23.878895 25.259676 -6.411446
v -23.878895 0.000000 -4.227226
v -23.878895 0.000000 -6.411446
v -21.346504 0.000000 4.868027
v -21.346504 0.000000 2.683807
v -21.346504 25.259676 4.868027
v -21.346504 25.259676 2.683807
v -23.878895 25.259676 4.868027
v -23.878895 25.259676 2.683807
v -23.878895 0.000000 4.868027
v -23.878895 0.000000 2.683807
vt 0.998170 0.000585
vt 1.002647 0.487957
vt 0.000644 0.001589
vt -0.000612 0.490828
vt -0.002358 0.999826
vt 0.002642 0.492212
vt 1.000000 1.002184
vt 0.997642 0.489996
vt -0.002358 0.999826
vt 0.002642 0.492212
vt 1.000000 1.002184
vt 0.997642 0.489996
vt -0.002358 0.999826
vt 0.002642 0.492212
vt 1.000000 1.002184
vt 0.997642 0.489996
vt -0.002358 0.999826
vt 0.002642 0.492212
vt 1.000000 1.002184
vt 0.997642 0.489996
vt 0.002642 0.492212
vt 1.000000 1.002184
vt 0.002642 0.492212
vt 1.000000 1.002184
vt 0.002642 0.492212
vt 1.000000 1.002184
vt 0.002642 0.492212
vt 1.000000 1.002184
vt 0.585779 1.001209
vt 0.588733 0.791893
vt 0.405662 1.000785
vt 0.404722 0.697804
vt 0.404722 0.697804
vt 0.586986 0.490911
vt 0.588824 0.791940
vt 0.588824 0.791940
vt 0.407796 0.491310
vt 0.404777 0.697833
vt 0.624190 1.001300
vt 0.623029 0.809430
vt 0.409786 1.000795
vt 0.408723 0.699850
vt 0.408723 0.699850
vt 0.621838 0.490833
vt 0.623194 0.809514
vt 0.623194 0.809514
vt 0.404113 0.491318
vt 0.412289 0.701673
vt 0.000000 0.000000
vt 0.300282 0.000000
vt 0.300282 1.000000
vt 0.000000 1.000000
vt 0.375000 0.000000
vt 0.625000 0.000000
vt 0.625000 0.250000
vt 0.375000 0.250000
vt 0.625000 0.500000
vt 0.375000 0.500000
vt 0.625000 0.750000
vt 0.375000 0.750000
vt 0.625000 1.000000
vt 0.375000 1.000000
vt 0.875000 0.000000
vt 0.875000 0.250000
vt 0.125000 0.000000
vt 0.125000 0.250000
vt 0.000000 0.000000
vt 0.300282 0.000000
vt 0.300282 1.000000
vt 0.000000 1.000000
vt 0.375000 0.000000
vt 0.625000 0.000000
vt 0.625000 0.250000
vt 0.375000 0.250000
vt 0.625000 0.500000
vt 0.375000 0.500000
vt 0.625000 0.750000
vt 0.375000 0.750000
vt 0.625000 1.000000
vt 0.375000 1.000000
vt 0.875000 0.000000
vt 0.875000 0.250000
vt 0.125000 0.000000
vt 0.125000 0.250000
vt 0.000000 0.000000
vt 0.300282 0.000000
vt 0.300282 1.000000
vt 0.000000 1.000000
vt 0.000000 0.000000
vt 0.923172 0.000000
vt 0.923172 1.000000
vt 0.000000 1.000000
vt 0.000000 0.000000
vt 0.300282 0.000000
vt 0.300282 1.000000
vt 0.000000 1.000000
vt 0.375000 0.000000
vt 0.625000 0.000000
vt 0.625000 0.250000
vt 0.375000 0.250000
vt 0.625000 0.500000
vt 0.375000 0.500000
vt 0.625000 0.750000
vt 0.375000 0.750000
vt 0.625000 1.000000
vt 0.375000 1.000000
vt 0.875000 0.000000
vt 0.875000 0.250000
vt 0.125000 0.000000
vt 0.125000 0.250000
vt 0.375000 0.000000
vt 0.625000 0.000000
vt 0.625000 0.250000
vt 0.375000 0.250000
vt 0.625000 0.500000
vt 0.375000 0.500000
vt 0.625000 0.750000
vt 0.375000 0.750000
vt 0.625000 1.000000
vt 0.375000 1.000000
vt 0.875000 0.000000
vt 0.875000 0.250000
vt 0.125000 0.000000
vt 0.125000 0.250000
vn 0.000000 1.000000 0.000000
vn 0.000000 1.000000 0.000000
vn 0.000000 1.000000 0.000000
vn 0.000000 1.000000 0.000000
vn 0.000000 0.000000 1.000000
vn -0.000000 -0.000000 1.000000
vn 0.000000 0.000000 1.000000
vn 0.000000 0.000000 1.000000
vn 0.000000 0.000000 1.000000
vn -0.000000 0.000000 1.000000
vn 0.000000 0.000000 1.000000
vn 0.000000 0.000000 1.000000
vn -1.000000 0.000000 0.000000
vn -1.000000 0.000000 0.000000
vn -1.000000 0.000000 0.000000
vn -1.000000 0.000000 0.000000
vn 1.000000 0.000000 0.000000
vn 1.000000 0.000000 0.000000
vn 1.000000 0.000000 0.000000
vn 1.000000 0.000000 0.000000
vn 1.000000 0.000000 0.000000
vn 1.000000 0.000000 0.000000
vn 1.000000 0.000000 0.000000
vn 1.000000 0.000000 0.000000
vn 0.000000 0.000000 -1.000000
vn 0.000000 0.000000 -1.000000
vn 0.000000 0.000000 -1.000000
vn 0.000000 0.000000 -1.000000
vn -0.000700 0.000000 1.000000
vn -0.000000 0.000000 1.000000
vn -0.001163 -0.000013 0.999999
vn -0.000000 -0.000000 1.000000
vn 1.000000 0.000000 0.000000
vn 1.000000 0.000000 0.000000
vn 1.000000 0.000000 0.000000
vn 1.000000 0.000000 0.000000
vn -1.000000 0.000000 0.000000
vn -1.000000 0.000000 0.000000
vn -1.000000 0.000000 0.000000
vn -1.000000 0.000000 0.000000
vn 0.000000 0.000000 1.000000
vn 0.000000 0.000000 1.000000
vn 0.000000 0.000000 1.000000
vn 0.000000 0.000000 1.000000
vn 0.000000 1.000000 0.000000
vn 0.000000 1.000000 0.000000
vn 0.000000 1.000000 0.000000
vn 0.000000 1.000000 0.000000
vn 0.000000 0.000000 -1.000000
vn 0.000000 0.000000 -1.000000
vn 0.000000 0.000000 -1.000000
vn 0.000000 0.000000 -1.000000
vn 0.000000 -1.000000 0.000000
vn 0.000000 -1.000000 0.000000
vn 0.000000 -1.000000 0.000000
vn 0.000000 -1.000000 0.000000
vn 1.000000 0.000000 0.000000
vn 1.000000 0.000000 0.000000
vn 1.000000 0.000000 0.000000
vn 1.000000 0.000000 0.000000
vn -1.000000 0.000000 0.000000
vn -1.000000 0.000000 0.000000
vn -1.000000 0.000000 0.000000
vn -1.000000 0.000000 0.000000
vn -1.000000 0.000000 0.000000
vn -1.000000 0.000000 0.000000
vn -1.000000 0.000000 0.000000
vn -1.000000 0.000000 0.000000
vn 0.000000 0.000000 1.000000
vn 0.000000 0.000000 1.000000
vn 0.000000 0.000000 1.000000
vn 0.000000 0.000000 1.000000
vn 0.000000 1.000000 0.000000
vn 0.000000 1.000000 0.000000
vn 0.000000 1.000000 0.000000
vn 0.000000 1.000000 0.000000
vn 0.000000 0.000000 -1.000000
vn 0.000000 0.000000 -1.000000
vn 0.000000 0.000000 -1.000000
vn 0.000000 0.000000 -1.000000
vn 0.000000 -1.000000 0.000000
vn 0.000000 -1.000000 0.000000
vn 0.000000 -1.000000 0.000000
vn 0.000000 -1.000000 0.000000
vn 1.000000 0.000000 0.000000
vn 1.000000 0.000000 0.000000
vn 1.000000 0.000000 0.000000
vn 1.000000 0.000000 0.000000
vn -1.000000 0.000000 0.000000
vn -1.000000 0.000000 0.000000
vn -1.000000 0.000000 0.000000
vn -1.000000 0.000000 0.000000
vn 0.000000 0.000000 1.000000
vn 0.000000 0.000000 1.000000
vn 0.000000 0.000000 1.000000
vn 0.000000 0.000000 1.000000
vn 0.000000 1.000000 -0.000000
vn 0.000000 1.000000 -0.000000
vn 0.000000 1.000000 -0.000000
vn 0.000000 1.000000 -0.000000
vn 0.000000 0.000000 1.000000
vn 0.000000 0.000000 1.000000
vn 0.000000 0.000000 1.000000
vn 0.000000 0.000000 1.000000
vn 1.000000 0.000000 0.000000
vn 1.000000 0.000000 0.000000
vn 1.000000 0.000000 0.000000
vn 1.000000 0.000000 0.000000
vn 0.000000 1.000000 0.000000
vn 0.000000 1.000000 0.000000
vn 0.000000 1.000000 0.000000
vn 0.000000 1.000000 0.000000
vn -1.000000 0.000000 0.000000
vn -1.000000 0.000000 0.000000
vn -1.000000 0.000000 0.000000
vn -1.000000 0.000000 0.000000
vn 0.000000 -1.000000 0.000000
vn 0.000000 -1.000000 0.000000
vn 0.000000 -1.000000 0.000000
vn 0.000000 -1.000000 0.000000
vn 0.000000 0.000000 -1.000000
vn 0.000000 0.000000 -1.000000
vn 0.000000 0.000000 -1.000000
vn 0.000000 0.000000 -1.000000
vn 0.000000 0.000000 1.000000
vn 0.000000 0.000000 1.000000
vn 0.000000 0.000000 1.000000
vn 0.000000 0.000000 1.000000
vn 1.000000 0.000000 0.000000
vn 1.000000 0.000000 0.000000
vn 1.000000 0.000000 0.000000
vn 1.000000 0.000000 0.000000
vn 0.000000 1.000000 0.000000
vn 0.000000 1.000000 0.000000
vn 0.000000 1.000000 0.000000
vn 0.000000 1.000000 0.000000
vn -1.000000 0.000000 0.000000
vn -1.000000 0.000000 0.000000
vn -1.000000 0.000000 0.000000
vn -1.000000 0.000000 0.000000
vn 0.000000 -1.000000 0.000000
vn 0.000000 -1.000000 0.000000
vn 0.000000 -1.000000 0.000000
vn 0.000000 -1.000000 0.000000
vn 0.000000 0.000000 -1.000000
vn 0.000000 0.000000 -1.000000
vn 0.000000 0.000000 -1.000000
vn 0.000000 0.000000 -1.000000
vn 0.000000 0.000000 1.000000
vn 0.000000 0.000000 1.000000
vn 0.000000 0.000000 1.000000
vn 0.000000 0.000000 1.000000
s 1
g polySurface3
usemtl initialShadingGroup
f 1/1/1 2/2/2 3/3/3
f 3/3/3 2/2/2 4/4/4
s 2
f 6/6/5 24/32/6 5/5/7
f 5/5/7 24/32/6 23/31/8
s 3
f 7/7/9 26/36/10 8/8/11
f 8/8/11 26/36/10 25/34/12
s 4
f 9/9/13 10/10/14 11/26/15
f 11/11/15 10/25/14 12/12/16
s 5
f 14/14/17 32/42/18 13/13/19
f 13/13/19 32/42/18 31/41/20
s 6
f 15/15/21 34/46/22 16/16/23
f 16/16/23 34/46/22 33/44/24
s 7
f 17/17/25 18/18/26 19/22/27
f 19/19/27 18/21/26 20/20/28
s 3
f 22/30/29 26/35/10 21/29/30
f 21/29/30 26/35/10 7/28/9
s 2
f 28/38/31 24/33/6 27/37/32
f 27/37/32 24/33/6 6/27/5
s 6
f 30/40/33 34/45/22 29/39/34
f 29/39/34 34/45/22 15/24/21
s 5
f 36/48/35 32/43/18 35/47/36
f 35/47/36 32/43/18 14/23/17
s 8
f 37/49/37 38/50/38 39/52/39
f 39/52/39 38/50/38 40/51/40
s 9
f 41/53/41 42/54/42 43/56/43
f 43/56/43 42/54/42 44/55/44
s 10
f 43/56/45 44/55/46 45/58/47
f 45/58/47 44/55/46 46/57/48
s 11
f 45/58/49 46/57/50 47/60/51
f 47/60/51 46/57/50 48/59/52
s 12
f 47/60/53 48/59/54 41/62/55
f 41/62/55 48/59/54 42/61/56
s 13
f 42/54/57 48/63/58 44/55/59
f 44/55/59 48/63/58 46/64/60
s 14
f 47/65/61 41/53/62 45/66/63
f 45/66/63 41/53/62 43/56/64
s 15
f 49/67/65 50/68/66 51/70/67
f 51/70/67 50/68/66 52/69/68
s 16
f 53/71/69 54/72/70 55/74/71
f 55/74/71 54/72/70 56/73/72
s 17
f 55/74/73 56/73/74 57/76/75
f 57/76/75 56/73/74 58/75/76
s 18
f 57/76/77 58/75/78 59/78/79
f 59/78/79 58/75/78 60/77/80
s 19
f 59/78/81 60/77/82 53/80/83
f 53/80/83 60/77/82 54/79/84
s 20
f 54/72/85 60/81/86 56/73/87
f 56/73/87 60/81/86 58/82/88
s 21
f 59/83/89 53/71/90 57/84/91
f 57/84/91 53/71/90 55/74/92
s 22
f 61/85/93 62/86/94 63/88/95
f 63/88/95 62/86/94 64/87/96
s 23
f 65/89/97 66/90/98 67/92/99
f 67/92/99 66/90/98 68/91/100
s 24
f 69/93/101 70/94/102 71/96/103
f 71/96/103 70/94/102 72/95/104
s 25
f 73/97/105 74/98/106 75/100/107
f 75/100/107 74/98/106 76/99/108
s 26
f 75/100/109 76/99/110 77/102/111
f 77/102/111 76/99/110 78/101/112
s 27
f 77/102/113 78/101/114 79/104/115
f 79/104/115 78/101/114 80/103/116
s 28
f 79/104/117 80/103/118 73/106/119
f 73/106/119 80/103/118 74/105/120
s 29
f 74/98/121 80/107/122 76/99/123
f 76/99/123 80/107/122 78/108/124
s 30
f 79/109/125 73/97/126 77/110/127
f 77/110/127 73/97/126 75/100/128
s 31
f 81/111/129 82/112/130 83/114/131
f 83/114/131 82/112/130 84/113/132
s 32
f 83/114/133 84/113/134 85/116/135
f 85/116/135 84/113/134 86/115/136
s 33
f 85/116/137 86/115/138 87/118/139
f 87/118/139 86/115/138 88/117/140
s 34
f 87/118/141 88/117/142 81/120/143
f 81/120/143 88/117/142 82/119/144
s 35
f 82/112/145 88/121/146 84/113/147
f 84/113/147 88/121/146 86/122/148
s 36
f 87/123/149 81/111/150 85/124/151
f 85/124/151 81/111/150 83/114/152
g default
v 3.903469 -0.000000 -21.241688
v 3.903469 -0.000000 -28.704359
v -4.180258 0.000000 -21.241688
v -4.180258 0.000000 -28.704359
vt 0.000000 0.000000
vt 0.923172 0.000000
vt 0.000000 1.000000
vt 0.923172 1.000000
vn 0.000000 1.000000 0.000000
vn 0.000000 1.000000 0.000000
vn 0.000000 1.000000 0.000000
vn 0.000000 1.000000 0.000000
s off
g pasted__pPlane3 group6
usemtl initialShadingGroup
f 89/125/153 90/126/154 92/128/155 91/127/156
