# This file uses centimeters as units for non-parametric coordinates.

mtllib Room1.mtl
g default
v -22.760891 -0.003761 21.366261
v 22.683630 -0.003761 21.366261
v -22.760891 -0.003761 -21.366495
v 22.683630 -0.003761 -21.366495
v -22.801487 25.225040 -21.364386
v -22.801487 -0.169680 -21.364386
v 22.849934 25.225040 -21.364386
v 22.849934 -0.169680 -21.364386
v 22.619659 -0.169680 21.399162
v 22.619659 25.225040 21.399162
v 22.619659 -0.169680 -21.399071
v 22.619659 25.225040 -21.399071
v -22.687897 25.225040 21.399162
v -22.687897 -0.169680 21.399162
v -22.687897 25.225040 -21.399071
v -22.687897 -0.169680 -21.399071
v 22.849934 25.225040 21.359802
v 22.849934 -0.169680 21.359802
v -22.801487 25.225040 21.359802
v -22.801487 -0.169680 21.359802
v 3.984630 25.225040 -21.364386
v 4.025270 14.753361 -21.364386
v -4.218629 25.225040 -21.364386
v -4.397367 10.068063 -21.364386
v 4.008684 -0.169680 -21.364386
v 4.029425 14.755672 -21.364386
v -4.212699 -0.169680 -21.364386
v -4.394829 10.069474 -21.364384
v -5.574295 0.000000 -20.133394
v -3.390073 0.000000 -20.133394
v -5.574295 25.259676 -20.133394
v -3.390073 25.259676 -20.133394
v -5.574295 25.259676 -22.665785
v -3.390073 25.259676 -22.665785
v -5.574295 0.000000 -22.665785
v -3.390073 0.000000 -22.665785
v 3.520960 0.000000 -20.133394
v 5.705181 0.000000 -20.133394
v 3.520960 25.259676 -20.133394
v 5.705181 25.259676 -20.133394
v 3.520960 25.259676 -22.665785
v 5.705181 25.259676 -22.665785
v 3.520960 0.000000 -22.665785
v 5.705181 0.000000 -22.665785
v 4.032654 24.812923 -21.295792
v 4.032654 24.812923 -28.758461
v 4.032654 -0.039313 -21.295792
v 4.032654 -0.039313 -28.758461
v -4.046601 24.812923 -21.295792
v -4.046601 24.812923 -28.758461
v -4.046601 -0.039313 -21.295792
v -4.046601 -0.039313 -28.758461
v 4.034530 -0.000000 -21.241690
v 4.034530 -0.000000 -28.704359
v -4.049197 0.000000 -21.241690
v -4.049197 0.000000 -28.704359
vt 0.844931 0.000585
vt 0.848708 0.487957
vt 0.003370 0.001589
vt 0.002311 0.490828
vt -0.002358 0.999826
vt 0.002642 0.492212
vt 1.000000 1.002184
vt 0.997642 0.489996
vt -0.002358 0.999826
vt 0.002642 0.492212
vt 1.000000 1.002184
vt 0.997642 0.489996
vt -0.002358 0.999826
vt 0.002642 0.492212
vt 1.000000 1.002184
vt 0.997642 0.489996
vt -0.002358 0.999826
vt 0.002642 0.492212
vt 1.000000 1.002184
vt 0.997642 0.489996
vt 0.002642 0.492212
vt 1.000000 1.002184
vt 0.002642 0.492212
vt 1.000000 1.002184
vt 0.002642 0.492212
vt 1.000000 1.002184
vt 0.002642 0.492212
vt 1.000000 1.002184
vt 0.585779 1.001209
vt 0.588733 0.791893
vt 0.405662 1.000785
vt 0.404722 0.697804
vt 0.404722 0.697804
vt 0.586986 0.490911
vt 0.588824 0.791940
vt 0.588824 0.791940
vt 0.407796 0.491310
vt 0.404777 0.697833
vt 0.909981 0.001485
vt 0.947749 0.000532
vt 0.947638 0.121733
vt 0.909871 0.122685
vt 0.947528 0.242934
vt 0.909760 0.243886
vt 0.947417 0.364134
vt 0.909649 0.365087
vt 0.947306 0.485335
vt 0.909539 0.486287
vt 0.985516 -0.000420
vt 0.985406 0.120781
vt 0.872214 0.002437
vt 0.872103 0.123638
vt 0.911901 -0.000092
vt 0.950152 -0.000092
vt 0.950152 0.120961
vt 0.911901 0.120961
vt 0.950152 0.242013
vt 0.911901 0.242013
vt 0.950152 0.363066
vt 0.911901 0.363066
vt 0.950152 0.484119
vt 0.911901 0.484119
vt 0.988403 -0.000092
vt 0.988403 0.120961
vt 0.873650 -0.000092
vt 0.873650 0.120961
vt 0.000000 0.494889
vt 0.300282 0.494889
vt 0.300282 1.001254
vt 0.000000 1.001254
vt 0.000000 0.492774
vt 0.300282 0.492774
vt 0.300282 0.998766
vt 0.000000 0.998766
vt 0.432823 0.250611
vt 0.563550 0.250611
vt 0.563550 0.353560
vt 0.432823 0.353560
vn 0.000000 1.000000 0.000000
vn 0.000000 1.000000 0.000000
vn 0.000000 1.000000 0.000000
vn 0.000000 1.000000 0.000000
vn 0.000000 0.000000 1.000000
vn -0.000000 -0.000000 1.000000
vn 0.000000 0.000000 1.000000
vn 0.000000 0.000000 1.000000
vn 0.000000 0.000000 1.000000
vn -0.000000 0.000000 1.000000
vn 0.000000 0.000000 1.000000
vn 0.000000 0.000000 1.000000
vn -1.000000 0.000000 0.000000
vn -1.000000 0.000000 0.000000
vn -1.000000 0.000000 0.000000
vn -1.000000 0.000000 0.000000
vn 1.000000 0.000000 0.000000
vn 1.000000 0.000000 0.000000
vn 1.000000 0.000000 0.000000
vn 1.000000 0.000000 0.000000
vn 0.000000 0.000000 -1.000000
vn 0.000000 0.000000 -1.000000
vn 0.000000 0.000000 -1.000000
vn 0.000000 0.000000 -1.000000
vn -0.000700 0.000000 1.000000
vn -0.000000 0.000000 1.000000
vn -0.001163 -0.000013 0.999999
vn -0.000000 -0.000000 1.000000
vn 0.000000 0.000000 1.000000
vn 0.000000 0.000000 1.000000
vn 0.000000 0.000000 1.000000
vn 0.000000 0.000000 1.000000
vn 0.000000 1.000000 0.000000
vn 0.000000 1.000000 0.000000
vn 0.000000 1.000000 0.000000
vn 0.000000 1.000000 0.000000
vn 0.000000 0.000000 -1.000000
vn 0.000000 0.000000 -1.000000
vn 0.000000 0.000000 -1.000000
vn 0.000000 0.000000 -1.000000
vn 0.000000 -1.000000 0.000000
vn 0.000000 -1.000000 0.000000
vn 0.000000 -1.000000 0.000000
vn 0.000000 -1.000000 0.000000
vn 1.000000 0.000000 0.000000
vn 1.000000 0.000000 0.000000
vn 1.000000 0.000000 0.000000
vn 1.000000 0.000000 0.000000
vn -1.000000 0.000000 0.000000
vn -1.000000 0.000000 0.000000
vn -1.000000 0.000000 0.000000
vn -1.000000 0.000000 0.000000
vn 0.000000 0.000000 1.000000
vn 0.000000 0.000000 1.000000
vn 0.000000 0.000000 1.000000
vn 0.000000 0.000000 1.000000
vn 0.000000 1.000000 0.000000
vn 0.000000 1.000000 0.000000
vn 0.000000 1.000000 0.000000
vn 0.000000 1.000000 0.000000
vn 0.000000 0.000000 -1.000000
vn 0.000000 0.000000 -1.000000
vn 0.000000 0.000000 -1.000000
vn 0.000000 0.000000 -1.000000
vn 0.000000 -1.000000 0.000000
vn 0.000000 -1.000000 0.000000
vn 0.000000 -1.000000 0.000000
vn 0.000000 -1.000000 0.000000
vn 1.000000 0.000000 0.000000
vn 1.000000 0.000000 0.000000
vn 1.000000 0.000000 0.000000
vn 1.000000 0.000000 0.000000
vn -1.000000 0.000000 0.000000
vn -1.000000 0.000000 0.000000
vn -1.000000 0.000000 0.000000
vn -1.000000 0.000000 0.000000
vn -1.000000 0.000000 0.000000
vn -1.000000 0.000000 0.000000
vn -1.000000 0.000000 0.000000
vn -1.000000 0.000000 0.000000
vn 1.000000 0.000000 0.000000
vn 1.000000 0.000000 0.000000
vn 1.000000 0.000000 0.000000
vn 1.000000 0.000000 0.000000
vn 0.000000 1.000000 0.000000
vn 0.000000 1.000000 0.000000
vn 0.000000 1.000000 0.000000
vn 0.000000 1.000000 0.000000
s 1
g pasted__pasted__pasted__polySurface2 pasted__pasted__group6 pasted__group7 group8
usemtl initialShadingGroup
f 1/1/1 2/2/2 3/3/3
f 3/3/3 2/2/2 4/4/4
s 2
f 6/6/5 24/32/6 5/5/7
f 5/5/7 24/32/6 23/31/8
s 3
f 7/7/9 26/36/10 8/8/11
f 8/8/11 26/36/10 25/34/12
s 4
f 9/9/13 10/10/14 11/26/15
f 11/11/15 10/25/14 12/12/16
s 5
f 13/13/17 14/14/18 15/24/19
f 15/15/19 14/23/18 16/16/20
s 6
f 17/17/21 18/18/22 19/22/23
f 19/19/23 18/21/22 20/20/24
s 3
f 22/30/25 26/35/10 21/29/26
f 21/29/26 26/35/10 7/28/9
s 2
f 28/38/27 24/33/6 27/37/28
f 27/37/28 24/33/6 6/27/5
s 7
f 29/39/29 30/40/30 31/42/31
f 31/42/31 30/40/30 32/41/32
s 8
f 31/42/33 32/41/34 33/44/35
f 33/44/35 32/41/34 34/43/36
s 9
f 33/44/37 34/43/38 35/46/39
f 35/46/39 34/43/38 36/45/40
s 10
f 35/46/41 36/45/42 29/48/43
f 29/48/43 36/45/42 30/47/44
s 11
f 30/40/45 36/49/46 32/41/47
f 32/41/47 36/49/46 34/50/48
s 12
f 35/51/49 29/39/50 33/52/51
f 33/52/51 29/39/50 31/42/52
s 13
f 37/53/53 38/54/54 39/56/55
f 39/56/55 38/54/54 40/55/56
s 14
f 39/56/57 40/55/58 41/58/59
f 41/58/59 40/55/58 42/57/60
s 15
f 41/58/61 42/57/62 43/60/63
f 43/60/63 42/57/62 44/59/64
s 16
f 43/60/65 44/59/66 37/62/67
f 37/62/67 44/59/66 38/61/68
s 17
f 38/54/69 44/63/70 40/55/71
f 40/55/71 44/63/70 42/64/72
s 18
f 43/65/73 37/53/74 41/66/75
f 41/66/75 37/53/74 39/56/76
s 19
f 45/67/77 46/68/78 47/70/79
f 47/70/79 46/68/78 48/69/80
s 20
f 49/71/81 51/74/82 50/72/83
f 51/74/82 52/73/84 50/72/83
s 21
f 53/75/85 54/76/86 55/78/87
f 55/78/87 54/76/86 56/77/88
