# This file uses centimeters as units for non-parametric coordinates.

mtllib Room4.mtl
g default
v -22.760891 -0.003761 21.366261
v 22.683630 -0.003761 21.366261
v -22.760891 -0.003761 -21.366495
v 22.683630 -0.003761 -21.366495
v 22.849934 25.225040 21.359802
v 22.849934 -0.169680 21.359802
v -22.801487 25.225040 21.359802
v -22.801487 -0.169680 21.359802
v -22.801487 25.225040 -21.364386
v -22.801487 -0.169680 -21.364386
v -4.218629 25.225040 -21.364386
v -4.397367 10.068063 -21.364386
v -4.212699 -0.169680 -21.364386
v -4.394829 10.069474 -21.364384
v 22.849934 25.225040 -21.364386
v 22.849934 -0.169680 -21.364386
v 3.984630 25.225040 -21.364386
v 4.025270 14.753361 -21.364386
v 4.008684 -0.169680 -21.364386
v 4.029425 14.755672 -21.364386
v -5.574295 0.000000 -20.133394
v -3.390073 0.000000 -20.133394
v -5.574295 25.259676 -20.133394
v -3.390073 25.259676 -20.133394
v -5.574295 25.259676 -22.665785
v -3.390073 25.259676 -22.665785
v -5.574295 0.000000 -22.665785
v -3.390073 0.000000 -22.665785
v 3.520960 0.000000 -20.133394
v 5.705181 0.000000 -20.133394
v 3.520960 25.259676 -20.133394
v 5.705181 25.259676 -20.133394
v 3.520960 25.259676 -22.665785
v 5.705181 25.259676 -22.665785
v 3.520960 0.000000 -22.665785
v 5.705181 0.000000 -22.665785
v 4.032654 24.812923 -21.295792
v 4.032654 24.812923 -28.758461
v 4.032654 -0.039313 -21.295792
v 4.032654 -0.039313 -28.758461
v -4.046601 24.812923 -21.295792
v -4.046601 24.812923 -28.758461
v -4.046601 -0.039313 -21.295792
v -4.046601 -0.039313 -28.758461
v 4.034530 -0.000000 -21.241690
v 4.034530 -0.000000 -28.704359
v -4.049197 0.000000 -21.241690
v -4.049197 0.000000 -28.704359
v -22.882607 25.225040 -22.910194
v -22.882607 -0.169680 -22.910194
v -22.882607 25.225040 -4.044891
v -22.882607 14.753361 -4.085533
v -22.882607 -0.169680 -4.068947
v -22.882607 14.755672 -4.089684
v -21.651615 0.000000 -3.581223
v -21.651615 0.000000 -5.765442
v -21.651615 25.259676 -3.581223
v -21.651615 25.259676 -5.765442
v -24.184006 25.259676 -3.581223
v -24.184006 25.259676 -5.765442
v -24.184006 0.000000 -3.581223
v -24.184006 0.000000 -5.765442
v -22.814013 24.812923 -4.092915
v -30.276682 24.812923 -4.092915
v -22.814013 -0.039313 -4.092915
v -30.276682 -0.039313 -4.092915
v -22.759911 -0.000000 -4.094791
v -30.222580 -0.000000 -4.094791
v -22.759911 0.000000 3.988937
v -30.222580 0.000000 3.988937
v -21.651615 0.000000 5.514034
v -21.651615 0.000000 3.329811
v -21.651615 25.259676 5.514034
v -21.651615 25.259676 3.329811
v -24.184006 25.259676 5.514034
v -24.184006 25.259676 3.329811
v -24.184006 0.000000 5.514034
v -24.184006 0.000000 3.329811
v -22.814013 24.812923 3.986340
v -30.276682 24.812923 3.986340
v -22.814013 -0.039313 3.986340
v -30.276682 -0.039313 3.986340
v -22.882607 25.225040 22.741226
v -22.882607 -0.169680 22.741226
v -22.882607 25.225040 4.158367
v -22.882607 10.068063 4.337105
v -22.882607 -0.169680 4.152439
v -22.882605 10.069474 4.334568
v 22.742540 25.225040 23.199974
v 22.742540 -0.169680 23.199974
v 22.742540 25.225040 4.334671
v 22.742540 14.753361 4.375313
v 22.742540 -0.169680 4.358727
v 22.742540 14.755672 4.379463
v 21.511549 0.000000 3.871002
v 21.511549 0.000000 6.055222
v 21.511549 25.259676 3.871002
v 21.511549 25.259676 6.055222
v 24.043940 25.259676 3.871002
v 24.043940 25.259676 6.055222
v 24.043940 0.000000 3.871002
v 24.043940 0.000000 6.055222
v 22.673946 24.812923 4.382694
v 30.136616 24.812923 4.382694
v 22.673946 -0.039313 4.382694
v 30.136616 -0.039313 4.382694
v 22.619844 -0.000000 4.384571
v 30.082514 -0.000000 4.384571
v 22.619844 0.000000 -3.699158
v 30.082514 0.000000 -3.699158
v 21.511549 0.000000 -5.224255
v 21.511549 0.000000 -3.040031
v 21.511549 25.259676 -5.224255
v 21.511549 25.259676 -3.040031
v 24.043940 25.259676 -5.224255
v 24.043940 25.259676 -3.040031
v 24.043940 0.000000 -5.224255
v 24.043940 0.000000 -3.040031
v 22.673946 24.812923 -3.696560
v 30.136616 24.812923 -3.696560
v 22.673946 -0.039313 -3.696560
v 30.136616 -0.039313 -3.696560
v 22.742540 25.225040 -22.451447
v 22.742540 -0.169680 -22.451447
v 22.742540 25.225040 -3.868587
v 22.742540 10.068063 -4.047325
v 22.742540 -0.169680 -3.862659
v 22.742538 10.069474 -4.044788
vt 0.844931 0.000585
vt 0.848708 0.487957
vt 0.003370 0.001589
vt 0.002311 0.490828
vt -0.002358 0.999826
vt 0.002642 0.492212
vt 1.000000 1.002184
vt 0.997642 0.489996
vt 0.002642 0.492212
vt 1.000000 1.002184
vt 0.002642 0.492212
vt 0.404722 0.697804
vt -0.002358 0.999826
vt 0.405662 1.000785
vt 0.404777 0.697833
vt 0.404722 0.697804
vt 0.407796 0.491310
vt 0.002642 0.492212
vt 1.000000 1.002184
vt 0.588824 0.791940
vt 0.997642 0.489996
vt 0.586986 0.490911
vt 0.588733 0.791893
vt 0.588824 0.791940
vt 0.585779 1.001209
vt 1.000000 1.002184
vt 0.909981 0.001485
vt 0.947749 0.000532
vt 0.909871 0.122685
vt 0.947638 0.121733
vt 0.909760 0.243886
vt 0.947528 0.242934
vt 0.909649 0.365087
vt 0.947417 0.364134
vt 0.909539 0.486287
vt 0.947306 0.485335
vt 0.985516 -0.000420
vt 0.985406 0.120781
vt 0.872214 0.002437
vt 0.872103 0.123638
vt 0.911901 -0.000092
vt 0.950152 -0.000092
vt 0.911901 0.120961
vt 0.950152 0.120961
vt 0.911901 0.242013
vt 0.950152 0.242013
vt 0.911901 0.363066
vt 0.950152 0.363066
vt 0.911901 0.484119
vt 0.950152 0.484119
vt 0.988403 -0.000092
vt 0.988403 0.120961
vt 0.873650 -0.000092
vt 0.873650 0.120961
vt 0.000000 0.494889
vt 0.300282 0.494889
vt 0.000000 1.001254
vt 0.300282 1.001254
vt 0.000000 0.492774
vt 0.000000 0.998766
vt 0.300282 0.492774
vt 0.300282 0.998766
vt 0.432823 0.250611
vt 0.563550 0.250611
vt 0.432823 0.353560
vt 0.563550 0.353560
vt 1.000000 1.002184
vt 0.588824 0.791940
vt 0.997642 0.489996
vt 0.586986 0.490911
vt 0.588733 0.791893
vt 0.588824 0.791940
vt 0.585779 1.001209
vt 1.000000 1.002184
vt 0.911901 -0.000092
vt 0.950152 -0.000092
vt 0.911901 0.120961
vt 0.950152 0.120961
vt 0.911901 0.242013
vt 0.950152 0.242013
vt 0.911901 0.363066
vt 0.950152 0.363066
vt 0.911901 0.484119
vt 0.950152 0.484119
vt 0.988403 -0.000092
vt 0.988403 0.120961
vt 0.873650 -0.000092
vt 0.873650 0.120961
vt 0.000000 0.494889
vt 0.300282 0.494889
vt 0.000000 1.001254
vt 0.300282 1.001254
vt 0.432823 0.250611
vt 0.563550 0.250611
vt 0.432823 0.353560
vt 0.563550 0.353560
vt 0.909981 0.001485
vt 0.947749 0.000532
vt 0.909871 0.122685
vt 0.947638 0.121733
vt 0.909760 0.243886
vt 0.947528 0.242934
vt 0.909649 0.365087
vt 0.947417 0.364134
vt 0.909539 0.486287
vt 0.947306 0.485335
vt 0.985516 -0.000420
vt 0.985406 0.120781
vt 0.872214 0.002437
vt 0.872103 0.123638
vt 0.000000 0.492774
vt 0.000000 0.998766
vt 0.300282 0.492774
vt 0.300282 0.998766
vt 0.002642 0.492212
vt 0.404722 0.697804
vt -0.002358 0.999826
vt 0.405662 1.000785
vt 0.404777 0.697833
vt 0.404722 0.697804
vt 0.407796 0.491310
vt 0.002642 0.492212
vt 1.000000 1.002184
vt 0.588824 0.791940
vt 0.997642 0.489996
vt 0.586986 0.490911
vt 0.588733 0.791893
vt 0.588824 0.791940
vt 0.585779 1.001209
vt 1.000000 1.002184
vt 0.911901 -0.000092
vt 0.950152 -0.000092
vt 0.911901 0.120961
vt 0.950152 0.120961
vt 0.911901 0.242013
vt 0.950152 0.242013
vt 0.911901 0.363066
vt 0.950152 0.363066
vt 0.911901 0.484119
vt 0.950152 0.484119
vt 0.988403 -0.000092
vt 0.988403 0.120961
vt 0.873650 -0.000092
vt 0.873650 0.120961
vt 0.000000 0.494889
vt 0.300282 0.494889
vt 0.000000 1.001254
vt 0.300282 1.001254
vt 0.432823 0.250611
vt 0.563550 0.250611
vt 0.432823 0.353560
vt 0.563550 0.353560
vt 0.909981 0.001485
vt 0.947749 0.000532
vt 0.909871 0.122685
vt 0.947638 0.121733
vt 0.909760 0.243886
vt 0.947528 0.242934
vt 0.909649 0.365087
vt 0.947417 0.364134
vt 0.909539 0.486287
vt 0.947306 0.485335
vt 0.985516 -0.000420
vt 0.985406 0.120781
vt 0.872214 0.002437
vt 0.872103 0.123638
vt 0.000000 0.492774
vt 0.000000 0.998766
vt 0.300282 0.492774
vt 0.300282 0.998766
vt 0.002642 0.492212
vt 0.404722 0.697804
vt -0.002358 0.999826
vt 0.405662 1.000785
vt 0.404777 0.697833
vt 0.404722 0.697804
vt 0.407796 0.491310
vt 0.002642 0.492212
vn 0.000000 1.000000 0.000000
vn 0.000000 1.000000 0.000000
vn 0.000000 1.000000 0.000000
vn 0.000000 1.000000 0.000000
vn 0.000000 0.000000 -1.000000
vn 0.000000 0.000000 -1.000000
vn 0.000000 0.000000 -1.000000
vn 0.000000 0.000000 -1.000000
vn 0.000000 0.000000 1.000000
vn -0.000000 -0.000000 1.000000
vn 0.000000 0.000000 1.000000
vn 0.000000 0.000000 1.000000
vn -0.001163 -0.000013 0.999999
vn -0.000000 -0.000000 1.000000
vn 0.000000 0.000000 1.000000
vn -0.000000 0.000000 1.000000
vn 0.000000 0.000000 1.000000
vn 0.000000 0.000000 1.000000
vn -0.000700 0.000000 1.000000
vn -0.000000 0.000000 1.000000
vn 0.000000 0.000000 1.000000
vn 0.000000 0.000000 1.000000
vn 0.000000 0.000000 1.000000
vn 0.000000 0.000000 1.000000
vn 0.000000 1.000000 0.000000
vn 0.000000 1.000000 0.000000
vn 0.000000 1.000000 0.000000
vn 0.000000 1.000000 0.000000
vn 0.000000 0.000000 -1.000000
vn 0.000000 0.000000 -1.000000
vn 0.000000 0.000000 -1.000000
vn 0.000000 0.000000 -1.000000
vn 0.000000 -1.000000 0.000000
vn 0.000000 -1.000000 0.000000
vn 0.000000 -1.000000 0.000000
vn 0.000000 -1.000000 0.000000
vn 1.000000 0.000000 0.000000
vn 1.000000 0.000000 0.000000
vn 1.000000 0.000000 0.000000
vn 1.000000 0.000000 0.000000
vn -1.000000 0.000000 0.000000
vn -1.000000 0.000000 0.000000
vn -1.000000 0.000000 0.000000
vn -1.000000 0.000000 0.000000
vn 0.000000 0.000000 1.000000
vn 0.000000 0.000000 1.000000
vn 0.000000 0.000000 1.000000
vn 0.000000 0.000000 1.000000
vn 0.000000 1.000000 0.000000
vn 0.000000 1.000000 0.000000
vn 0.000000 1.000000 0.000000
vn 0.000000 1.000000 0.000000
vn 0.000000 0.000000 -1.000000
vn 0.000000 0.000000 -1.000000
vn 0.000000 0.000000 -1.000000
vn 0.000000 0.000000 -1.000000
vn 0.000000 -1.000000 0.000000
vn 0.000000 -1.000000 0.000000
vn 0.000000 -1.000000 0.000000
vn 0.000000 -1.000000 0.000000
vn 1.000000 0.000000 0.000000
vn 1.000000 0.000000 0.000000
vn 1.000000 0.000000 0.000000
vn 1.000000 0.000000 0.000000
vn -1.000000 0.000000 0.000000
vn -1.000000 0.000000 0.000000
vn -1.000000 0.000000 0.000000
vn -1.000000 0.000000 0.000000
vn -1.000000 0.000000 0.000000
vn -1.000000 0.000000 0.000000
vn -1.000000 0.000000 0.000000
vn -1.000000 0.000000 0.000000
vn 1.000000 0.000000 0.000000
vn 1.000000 0.000000 0.000000
vn 1.000000 0.000000 0.000000
vn 1.000000 0.000000 0.000000
vn 0.000000 1.000000 0.000000
vn 0.000000 1.000000 0.000000
vn 0.000000 1.000000 0.000000
vn 0.000000 1.000000 0.000000
vn 1.000000 0.000000 0.000000
vn 1.000000 0.000000 0.000000
vn 1.000000 0.000000 0.000000
vn 1.000000 0.000000 0.000000
vn 1.000000 -0.000003 0.000000
vn 1.000000 -0.000000 0.000000
vn 1.000000 0.000000 0.000000
vn 1.000000 0.000000 0.000000
vn 1.000000 0.000000 0.000000
vn 1.000000 0.000000 0.000000
vn 0.000000 1.000000 0.000000
vn 0.000000 1.000000 0.000000
vn 0.000000 1.000000 0.000000
vn 0.000000 1.000000 0.000000
vn -1.000000 0.000000 0.000000
vn -1.000000 0.000000 0.000000
vn -1.000000 0.000000 0.000000
vn -1.000000 0.000000 0.000000
vn 0.000000 -1.000000 0.000000
vn 0.000000 -1.000000 0.000000
vn 0.000000 -1.000000 0.000000
vn 0.000000 -1.000000 0.000000
vn 0.000000 0.000000 -1.000000
vn 0.000000 0.000000 -1.000000
vn 0.000000 0.000000 -1.000000
vn 0.000000 0.000000 -1.000000
vn 0.000000 0.000000 1.000000
vn 0.000000 0.000000 1.000000
vn 0.000000 0.000000 1.000000
vn 0.000000 0.000000 1.000000
vn 0.000000 0.000000 1.000000
vn 0.000000 0.000000 1.000000
vn 0.000000 0.000000 1.000000
vn 0.000000 0.000000 1.000000
vn 0.000000 1.000000 -0.000000
vn 0.000000 1.000000 -0.000000
vn 0.000000 1.000000 -0.000000
vn 0.000000 1.000000 -0.000000
vn 1.000000 0.000000 0.000000
vn 1.000000 0.000000 0.000000
vn 1.000000 0.000000 0.000000
vn 1.000000 0.000000 0.000000
vn 0.000000 1.000000 0.000000
vn 0.000000 1.000000 0.000000
vn 0.000000 1.000000 0.000000
vn 0.000000 1.000000 0.000000
vn -1.000000 0.000000 0.000000
vn -1.000000 0.000000 0.000000
vn -1.000000 0.000000 0.000000
vn -1.000000 0.000000 0.000000
vn 0.000000 -1.000000 0.000000
vn 0.000000 -1.000000 0.000000
vn 0.000000 -1.000000 0.000000
vn 0.000000 -1.000000 0.000000
vn 0.000000 0.000000 -1.000000
vn 0.000000 0.000000 -1.000000
vn 0.000000 0.000000 -1.000000
vn 0.000000 0.000000 -1.000000
vn 0.000000 0.000000 1.000000
vn 0.000000 0.000000 1.000000
vn 0.000000 0.000000 1.000000
vn 0.000000 0.000000 1.000000
vn 0.000000 0.000000 -1.000000
vn 0.000000 0.000000 -1.000000
vn 0.000000 0.000000 -1.000000
vn 0.000000 0.000000 -1.000000
vn 1.000000 0.000000 0.000000
vn 1.000000 0.000000 0.000000
vn 1.000000 -0.000000 0.000000
vn 1.000000 -0.000000 0.000000
vn 1.000000 -0.000036 0.000744
vn 1.000000 0.000000 0.000000
vn -1.000000 0.000000 0.000000
vn -1.000000 0.000000 0.000000
vn -1.000000 0.000000 0.000000
vn -1.000000 0.000000 0.000000
vn -1.000000 -0.000003 0.000000
vn -1.000000 0.000000 0.000000
vn -1.000000 0.000000 0.000000
vn -1.000000 0.000000 0.000000
vn -1.000000 0.000000 0.000000
vn -1.000000 0.000000 0.000000
vn 0.000000 1.000000 0.000000
vn 0.000000 1.000000 0.000000
vn 0.000000 1.000000 0.000000
vn 0.000000 1.000000 0.000000
vn 1.000000 0.000000 0.000000
vn 1.000000 0.000000 0.000000
vn 1.000000 0.000000 0.000000
vn 1.000000 0.000000 0.000000
vn 0.000000 -1.000000 0.000000
vn 0.000000 -1.000000 0.000000
vn 0.000000 -1.000000 0.000000
vn 0.000000 -1.000000 0.000000
vn 0.000000 0.000000 1.000000
vn 0.000000 0.000000 1.000000
vn 0.000000 0.000000 1.000000
vn 0.000000 0.000000 1.000000
vn 0.000000 0.000000 -1.000000
vn 0.000000 0.000000 -1.000000
vn 0.000000 0.000000 -1.000000
vn 0.000000 0.000000 -1.000000
vn 0.000000 0.000000 -1.000000
vn 0.000000 0.000000 -1.000000
vn 0.000000 0.000000 -1.000000
vn 0.000000 0.000000 -1.000000
vn 0.000000 1.000000 0.000000
vn 0.000000 1.000000 0.000000
vn 0.000000 1.000000 0.000000
vn 0.000000 1.000000 0.000000
vn -1.000000 0.000000 0.000000
vn -1.000000 0.000000 0.000000
vn -1.000000 0.000000 0.000000
vn -1.000000 0.000000 0.000000
vn 0.000000 1.000000 0.000000
vn 0.000000 1.000000 0.000000
vn 0.000000 1.000000 0.000000
vn 0.000000 1.000000 0.000000
vn 1.000000 0.000000 0.000000
vn 1.000000 0.000000 0.000000
vn 1.000000 0.000000 0.000000
vn 1.000000 0.000000 0.000000
vn 0.000000 -1.000000 0.000000
vn 0.000000 -1.000000 0.000000
vn 0.000000 -1.000000 0.000000
vn 0.000000 -1.000000 0.000000
vn 0.000000 0.000000 1.000000
vn 0.000000 0.000000 1.000000
vn 0.000000 0.000000 1.000000
vn 0.000000 0.000000 1.000000
vn 0.000000 0.000000 -1.000000
vn 0.000000 0.000000 -1.000000
vn 0.000000 0.000000 -1.000000
vn 0.000000 0.000000 -1.000000
vn 0.000000 0.000000 1.000000
vn 0.000000 0.000000 1.000000
vn 0.000000 0.000000 1.000000
vn 0.000000 0.000000 1.000000
vn -1.000000 0.000000 0.000000
vn -1.000000 0.000000 -0.000000
vn -1.000000 0.000000 0.000000
vn -1.000000 0.000000 0.000000
vn -1.000000 -0.000036 -0.000744
vn -1.000000 0.000000 -0.000000
s 1
g polySurface11
usemtl initialShadingGroup
f 1/1/1 2/2/2 3/3/3
f 3/3/3 2/2/2 4/4/4
s 2
f 5/5/5 6/6/6 7/10/7
f 7/7/7 6/9/6 8/8/8
s 3
f 10/11/9 12/12/10 9/13/11
f 9/13/11 12/12/10 11/14/12
f 14/15/13 12/16/10 13/17/14
f 13/17/14 12/16/10 10/18/9
s 4
f 15/19/15 20/20/16 16/21/17
f 16/21/17 20/20/16 19/22/18
f 18/23/19 20/24/16 17/25/20
f 17/25/20 20/24/16 15/26/15
s 5
f 21/27/21 22/28/22 23/29/23
f 23/29/23 22/28/22 24/30/24
s 6
f 23/29/25 24/30/26 25/31/27
f 25/31/27 24/30/26 26/32/28
s 7
f 25/31/29 26/32/30 27/33/31
f 27/33/31 26/32/30 28/34/32
s 8
f 27/33/33 28/34/34 21/35/35
f 21/35/35 28/34/34 22/36/36
s 9
f 22/28/37 28/37/38 24/30/39
f 24/30/39 28/37/38 26/38/40
s 10
f 27/39/41 21/27/42 25/40/43
f 25/40/43 21/27/42 23/29/44
s 11
f 29/41/45 30/42/46 31/43/47
f 31/43/47 30/42/46 32/44/48
s 12
f 31/43/49 32/44/50 33/45/51
f 33/45/51 32/44/50 34/46/52
s 13
f 33/45/53 34/46/54 35/47/55
f 35/47/55 34/46/54 36/48/56
s 14
f 35/47/57 36/48/58 29/49/59
f 29/49/59 36/48/58 30/50/60
s 15
f 30/42/61 36/51/62 32/44/63
f 32/44/63 36/51/62 34/52/64
s 16
f 35/53/65 29/41/66 33/54/67
f 33/54/67 29/41/66 31/43/68
s 17
f 37/55/69 38/56/70 39/57/71
f 39/57/71 38/56/70 40/58/72
s 18
f 41/59/73 43/60/74 42/61/75
f 43/60/74 44/62/76 42/61/75
s 19
f 45/63/77 46/64/78 47/65/79
f 47/65/79 46/64/78 48/66/80
s 20
f 49/67/81 54/68/82 50/69/83
f 50/69/83 54/68/82 53/70/84
f 52/71/85 54/72/82 51/73/86
f 51/73/86 54/72/82 49/74/81
s 21
f 55/75/87 56/76/88 57/77/89
f 57/77/89 56/76/88 58/78/90
s 22
f 57/77/91 58/78/92 59/79/93
f 59/79/93 58/78/92 60/80/94
s 23
f 59/79/95 60/80/96 61/81/97
f 61/81/97 60/80/96 62/82/98
s 24
f 61/81/99 62/82/100 55/83/101
f 55/83/101 62/82/100 56/84/102
s 25
f 56/76/103 62/85/104 58/78/105
f 58/78/105 62/85/104 60/86/106
s 26
f 61/87/107 55/75/108 59/88/109
f 59/88/109 55/75/108 57/77/110
s 27
f 63/89/111 64/90/112 65/91/113
f 65/91/113 64/90/112 66/92/114
s 28
f 67/93/115 68/94/116 69/95/117
f 69/95/117 68/94/116 70/96/118
s 29
f 71/97/119 72/98/120 73/99/121
f 73/99/121 72/98/120 74/100/122
s 30
f 73/99/123 74/100/124 75/101/125
f 75/101/125 74/100/124 76/102/126
s 31
f 75/101/127 76/102/128 77/103/129
f 77/103/129 76/102/128 78/104/130
s 32
f 77/103/131 78/104/132 71/105/133
f 71/105/133 78/104/132 72/106/134
s 33
f 72/98/135 78/107/136 74/100/137
f 74/100/137 78/107/136 76/108/138
s 34
f 77/109/139 71/97/140 75/110/141
f 75/110/141 71/97/140 73/99/142
s 35
f 79/111/143 81/112/144 80/113/145
f 81/112/144 82/114/146 80/113/145
s 36
f 84/115/147 86/116/148 83/117/149
f 83/117/149 86/116/148 85/118/150
f 88/119/151 86/120/148 87/121/152
f 87/121/152 86/120/148 84/122/147
s 37
f 89/123/153 94/124/154 90/125/155
f 90/125/155 94/124/154 93/126/156
f 92/127/157 94/128/154 91/129/158
f 91/129/158 94/128/154 89/130/153
s 38
f 95/131/159 96/132/160 97/133/161
f 97/133/161 96/132/160 98/134/162
s 39
f 97/133/163 98/134/164 99/135/165
f 99/135/165 98/134/164 100/136/166
s 40
f 99/135/167 100/136/168 101/137/169
f 101/137/169 100/136/168 102/138/170
s 41
f 101/137/171 102/138/172 95/139/173
f 95/139/173 102/138/172 96/140/174
s 42
f 96/132/175 102/141/176 98/134/177
f 98/134/177 102/141/176 100/142/178
s 43
f 101/143/179 95/131/180 99/144/181
f 99/144/181 95/131/180 97/133/182
s 44
f 103/145/183 104/146/184 105/147/185
f 105/147/185 104/146/184 106/148/186
s 45
f 107/149/187 108/150/188 109/151/189
f 109/151/189 108/150/188 110/152/190
s 46
f 111/153/191 112/154/192 113/155/193
f 113/155/193 112/154/192 114/156/194
s 47
f 113/155/195 114/156/196 115/157/197
f 115/157/197 114/156/196 116/158/198
s 48
f 115/157/199 116/158/200 117/159/201
f 117/159/201 116/158/200 118/160/202
s 49
f 117/159/203 118/160/204 111/161/205
f 111/161/205 118/160/204 112/162/206
s 50
f 112/154/207 118/163/208 114/156/209
f 114/156/209 118/163/208 116/164/210
s 51
f 117/165/211 111/153/212 115/166/213
f 115/166/213 111/153/212 113/155/214
s 52
f 119/167/215 121/168/216 120/169/217
f 121/168/216 122/170/218 120/169/217
s 53
f 124/171/219 126/172/220 123/173/221
f 123/173/221 126/172/220 125/174/222
f 128/175/223 126/176/220 127/177/224
f 127/177/224 126/176/220 124/178/219
