# This file uses centimeters as units for non-parametric coordinates.

mtllib Room4.mtl
g default
v -22.760891 -0.003761 21.366261
v 22.683630 -0.003761 21.366261
v -22.760891 -0.003761 -21.366495
v 22.683630 -0.003761 -21.366495
v 22.619659 -0.169680 21.399162
v 22.619659 25.225040 21.399162
v 22.619659 -0.169680 -21.399071
v 22.619659 25.225040 -21.399071
v 22.849934 25.225040 21.359802
v 22.849934 -0.169680 21.359802
v -22.801487 25.225040 21.359802
v -22.801487 -0.169680 21.359802
v -22.801487 25.225040 -21.364386
v -22.801487 -0.169680 -21.364386
v -4.218629 25.225040 -21.364386
v -4.397367 10.068063 -21.364386
v -4.212699 -0.169680 -21.364386
v -4.394829 10.069474 -21.364384
v 22.849934 25.225040 -21.364386
v 22.849934 -0.169680 -21.364386
v 3.984630 25.225040 -21.364386
v 4.025270 14.753361 -21.364386
v 4.008684 -0.169680 -21.364386
v 4.029425 14.755672 -21.364386
v -5.574295 0.000000 -20.133394
v -3.390073 0.000000 -20.133394
v -5.574295 25.259676 -20.133394
v -3.390073 25.259676 -20.133394
v -5.574295 25.259676 -22.665785
v -3.390073 25.259676 -22.665785
v -5.574295 0.000000 -22.665785
v -3.390073 0.000000 -22.665785
v 3.520960 0.000000 -20.133394
v 5.705181 0.000000 -20.133394
v 3.520960 25.259676 -20.133394
v 5.705181 25.259676 -20.133394
v 3.520960 25.259676 -22.665785
v 5.705181 25.259676 -22.665785
v 3.520960 0.000000 -22.665785
v 5.705181 0.000000 -22.665785
v 4.032654 24.812923 -21.295792
v 4.032654 24.812923 -28.758461
v 4.032654 -0.039313 -21.295792
v 4.032654 -0.039313 -28.758461
v -4.046601 24.812923 -21.295792
v -4.046601 24.812923 -28.758461
v -4.046601 -0.039313 -21.295792
v -4.046601 -0.039313 -28.758461
v 4.034530 -0.000000 -21.241690
v 4.034530 -0.000000 -28.704359
v -4.049197 0.000000 -21.241690
v -4.049197 0.000000 -28.704359
v -22.437759 25.225040 -22.910194
v -22.437759 -0.169680 -22.910194
v -22.437759 25.225040 -4.044891
v -22.437759 14.753361 -4.085533
v -22.437759 -0.169680 -4.068947
v -22.437759 14.755672 -4.089684
v -21.206768 0.000000 -3.581223
v -21.206768 0.000000 -5.765442
v -21.206768 25.259676 -3.581223
v -21.206768 25.259676 -5.765442
v -23.739159 25.259676 -3.581223
v -23.739159 25.259676 -5.765442
v -23.739159 0.000000 -3.581223
v -23.739159 0.000000 -5.765442
v -22.369165 24.812923 -4.092915
v -29.831835 24.812923 -4.092915
v -22.369165 -0.039313 -4.092915
v -29.831835 -0.039313 -4.092915
v -22.315063 -0.000000 -4.094791
v -29.777733 -0.000000 -4.094791
v -22.315063 0.000000 3.988937
v -29.777733 0.000000 3.988937
v -21.206768 0.000000 5.514034
v -21.206768 0.000000 3.329811
v -21.206768 25.259676 5.514034
v -21.206768 25.259676 3.329811
v -23.739159 25.259676 5.514034
v -23.739159 25.259676 3.329811
v -23.739159 0.000000 5.514034
v -23.739159 0.000000 3.329811
v -22.369165 24.812923 3.986340
v -29.831835 24.812923 3.986340
v -22.369165 -0.039313 3.986340
v -29.831835 -0.039313 3.986340
v -22.437759 25.225040 22.741226
v -22.437759 -0.169680 22.741226
v -22.437759 25.225040 4.158367
v -22.437759 10.068063 4.337105
v -22.437759 -0.169680 4.152439
v -22.437757 10.069474 4.334568
vt 0.844931 0.000585
vt 0.848708 0.487957
vt 0.003370 0.001589
vt 0.002311 0.490828
vt -0.002358 0.999826
vt 0.002642 0.492212
vt 1.000000 1.002184
vt 0.997642 0.489996
vt -0.002358 0.999826
vt 0.002642 0.492212
vt 1.000000 1.002184
vt 0.997642 0.489996
vt 0.002642 0.492212
vt 1.000000 1.002184
vt 0.002642 0.492212
vt 1.000000 1.002184
vt 0.002642 0.492212
vt 0.404722 0.697804
vt -0.002358 0.999826
vt 0.405662 1.000785
vt 0.404777 0.697833
vt 0.404722 0.697804
vt 0.407796 0.491310
vt 0.002642 0.492212
vt 1.000000 1.002184
vt 0.588824 0.791940
vt 0.997642 0.489996
vt 0.586986 0.490911
vt 0.588733 0.791893
vt 0.588824 0.791940
vt 0.585779 1.001209
vt 1.000000 1.002184
vt 0.905113 0.014578
vt 0.943921 0.010879
vt 0.904999 0.485300
vt 0.943807 0.481601
vt 1.131912 0.133961
vt 1.169680 0.133009
vt 1.131802 0.255162
vt 1.169569 0.254209
vt 0.905777 0.016172
vt 0.944584 0.012473
vt 0.905663 0.486894
vt 0.944470 0.483195
vt 1.131691 0.376362
vt 1.169459 0.375410
vt 1.131580 0.497563
vt 1.169348 0.496611
vt 0.906489 0.017616
vt 0.945296 0.013917
vt 0.906375 0.488338
vt 0.945182 0.484639
vt 0.904629 0.011539
vt 0.943436 0.007840
vt 0.904515 0.482261
vt 0.943322 0.478562
vt 0.906194 0.015190
vt 0.945498 0.015190
vt 0.906194 0.485338
vt 0.945498 0.485338
vt 1.270117 0.129634
vt 1.308368 0.129634
vt 1.270117 0.250687
vt 1.308368 0.250687
vt 0.904412 0.015636
vt 0.943716 0.015636
vt 0.904412 0.485783
vt 0.943716 0.485783
vt 1.270117 0.371740
vt 1.308368 0.371740
vt 1.270117 0.492792
vt 1.308368 0.492792
vt 0.905393 0.015190
vt 0.944697 0.015190
vt 0.905393 0.485338
vt 0.944697 0.485338
vt 0.905214 0.015190
vt 0.944517 0.015190
vt 0.905214 0.485338
vt 0.944517 0.485338
vt 0.000000 0.494889
vt 0.300282 0.494889
vt 0.000000 1.001254
vt 0.300282 1.001254
vt 0.000000 0.492774
vt 0.000000 0.998766
vt 0.300282 0.492774
vt 0.300282 0.998766
vt 0.432823 0.250611
vt 0.563550 0.250611
vt 0.432823 0.353560
vt 0.563550 0.353560
vt 1.000000 1.002184
vt 0.588824 0.791940
vt 0.997642 0.489996
vt 0.586986 0.490911
vt 0.588733 0.791893
vt 0.588824 0.791940
vt 0.585779 1.001209
vt 1.000000 1.002184
vt 0.888612 0.014910
vt 0.964272 0.014910
vt 0.888612 0.475945
vt 0.964272 0.475945
vt 1.207668 0.121828
vt 1.245919 0.121828
vt 1.207668 0.242881
vt 1.245919 0.242881
vt 0.888611 0.015347
vt 0.964272 0.015347
vt 0.888611 0.476382
vt 0.964272 0.476382
vt 1.207668 0.363933
vt 1.245919 0.363933
vt 1.207668 0.484986
vt 1.245919 0.484986
vt 0.888785 0.011607
vt 0.964446 0.011607
vt 0.888785 0.472642
vt 0.964446 0.472642
vt 0.888439 0.011607
vt 0.964099 0.011607
vt 0.888439 0.472642
vt 0.964099 0.472642
vt 0.000000 0.494889
vt 0.300282 0.494889
vt 0.000000 1.001254
vt 0.300282 1.001254
vt 0.432823 0.250611
vt 0.563550 0.250611
vt 0.432823 0.353560
vt 0.563550 0.353560
vt 0.889961 0.017613
vt 0.964666 0.013986
vt 0.889742 0.479211
vt 0.964447 0.475584
vt 1.208239 0.122685
vt 1.246007 0.121733
vt 1.208129 0.243886
vt 1.245896 0.242934
vt 0.889523 0.019177
vt 0.964228 0.015550
vt 0.889304 0.480775
vt 0.964008 0.477148
vt 1.208018 0.365087
vt 1.245785 0.364134
vt 1.207907 0.486287
vt 1.245675 0.485335
vt 0.889178 0.010683
vt 0.963883 0.007056
vt 0.888959 0.472281
vt 0.963664 0.468654
vt 0.890744 0.017937
vt 0.965449 0.014310
vt 0.890525 0.479535
vt 0.965230 0.475908
vt 0.000000 0.492774
vt 0.000000 0.998766
vt 0.300282 0.492774
vt 0.300282 0.998766
vt 0.002642 0.492212
vt 0.404722 0.697804
vt -0.002358 0.999826
vt 0.405662 1.000785
vt 0.404777 0.697833
vt 0.404722 0.697804
vt 0.407796 0.491310
vt 0.002642 0.492212
vn 0.000000 1.000000 0.000000
vn 0.000000 1.000000 0.000000
vn 0.000000 1.000000 0.000000
vn 0.000000 1.000000 0.000000
vn -1.000000 0.000000 0.000000
vn -1.000000 0.000000 0.000000
vn -1.000000 0.000000 0.000000
vn -1.000000 0.000000 0.000000
vn 0.000000 0.000000 -1.000000
vn 0.000000 0.000000 -1.000000
vn 0.000000 0.000000 -1.000000
vn 0.000000 0.000000 -1.000000
vn 0.000000 0.000000 1.000000
vn -0.000000 -0.000000 1.000000
vn 0.000000 0.000000 1.000000
vn 0.000000 0.000000 1.000000
vn -0.001163 -0.000013 0.999999
vn -0.000000 -0.000000 1.000000
vn 0.000000 0.000000 1.000000
vn -0.000000 0.000000 1.000000
vn 0.000000 0.000000 1.000000
vn 0.000000 0.000000 1.000000
vn -0.000700 0.000000 1.000000
vn -0.000000 0.000000 1.000000
vn 0.000000 0.000000 1.000000
vn 0.000000 0.000000 1.000000
vn 0.000000 0.000000 1.000000
vn 0.000000 0.000000 1.000000
vn 0.000000 1.000000 0.000000
vn 0.000000 1.000000 0.000000
vn 0.000000 1.000000 0.000000
vn 0.000000 1.000000 0.000000
vn 0.000000 0.000000 -1.000000
vn 0.000000 0.000000 -1.000000
vn 0.000000 0.000000 -1.000000
vn 0.000000 0.000000 -1.000000
vn 0.000000 -1.000000 0.000000
vn 0.000000 -1.000000 0.000000
vn 0.000000 -1.000000 0.000000
vn 0.000000 -1.000000 0.000000
vn 1.000000 0.000000 0.000000
vn 1.000000 0.000000 0.000000
vn 1.000000 0.000000 0.000000
vn 1.000000 0.000000 0.000000
vn -1.000000 0.000000 0.000000
vn -1.000000 0.000000 0.000000
vn -1.000000 0.000000 0.000000
vn -1.000000 0.000000 0.000000
vn 0.000000 0.000000 1.000000
vn 0.000000 0.000000 1.000000
vn 0.000000 0.000000 1.000000
vn 0.000000 0.000000 1.000000
vn 0.000000 1.000000 0.000000
vn 0.000000 1.000000 0.000000
vn 0.000000 1.000000 0.000000
vn 0.000000 1.000000 0.000000
vn 0.000000 0.000000 -1.000000
vn 0.000000 0.000000 -1.000000
vn 0.000000 0.000000 -1.000000
vn 0.000000 0.000000 -1.000000
vn 0.000000 -1.000000 0.000000
vn 0.000000 -1.000000 0.000000
vn 0.000000 -1.000000 0.000000
vn 0.000000 -1.000000 0.000000
vn 1.000000 0.000000 0.000000
vn 1.000000 0.000000 0.000000
vn 1.000000 0.000000 0.000000
vn 1.000000 0.000000 0.000000
vn -1.000000 0.000000 0.000000
vn -1.000000 0.000000 0.000000
vn -1.000000 0.000000 0.000000
vn -1.000000 0.000000 0.000000
vn -1.000000 0.000000 0.000000
vn -1.000000 0.000000 0.000000
vn -1.000000 0.000000 0.000000
vn -1.000000 0.000000 0.000000
vn 1.000000 0.000000 0.000000
vn 1.000000 0.000000 0.000000
vn 1.000000 0.000000 0.000000
vn 1.000000 0.000000 0.000000
vn 0.000000 1.000000 0.000000
vn 0.000000 1.000000 0.000000
vn 0.000000 1.000000 0.000000
vn 0.000000 1.000000 0.000000
vn 1.000000 0.000000 0.000000
vn 1.000000 -0.000000 0.000000
vn 1.000000 0.000000 0.000000
vn 1.000000 0.000000 0.000000
vn 1.000000 -0.000003 0.000000
vn 1.000000 -0.000000 0.000000
vn 1.000000 0.000000 0.000000
vn 1.000000 0.000000 0.000000
vn 1.000000 0.000000 0.000000
vn 1.000000 0.000000 0.000000
vn 0.000000 1.000000 0.000000
vn 0.000000 1.000000 0.000000
vn 0.000000 1.000000 0.000000
vn 0.000000 1.000000 0.000000
vn -1.000000 0.000000 0.000000
vn -1.000000 0.000000 0.000000
vn -1.000000 0.000000 0.000000
vn -1.000000 0.000000 0.000000
vn 0.000000 -1.000000 0.000000
vn 0.000000 -1.000000 0.000000
vn 0.000000 -1.000000 0.000000
vn 0.000000 -1.000000 0.000000
vn 0.000000 0.000000 -1.000000
vn 0.000000 0.000000 -1.000000
vn 0.000000 0.000000 -1.000000
vn 0.000000 0.000000 -1.000000
vn 0.000000 0.000000 1.000000
vn 0.000000 0.000000 1.000000
vn 0.000000 0.000000 1.000000
vn 0.000000 0.000000 1.000000
vn 0.000000 0.000000 1.000000
vn 0.000000 0.000000 1.000000
vn 0.000000 0.000000 1.000000
vn 0.000000 0.000000 1.000000
vn 0.000000 1.000000 -0.000000
vn 0.000000 1.000000 -0.000000
vn 0.000000 1.000000 -0.000000
vn 0.000000 1.000000 -0.000000
vn 1.000000 0.000000 0.000000
vn 1.000000 0.000000 0.000000
vn 1.000000 0.000000 0.000000
vn 1.000000 0.000000 0.000000
vn 0.000000 1.000000 0.000000
vn 0.000000 1.000000 0.000000
vn 0.000000 1.000000 0.000000
vn 0.000000 1.000000 0.000000
vn -1.000000 0.000000 0.000000
vn -1.000000 0.000000 0.000000
vn -1.000000 0.000000 0.000000
vn -1.000000 0.000000 0.000000
vn 0.000000 -1.000000 0.000000
vn 0.000000 -1.000000 0.000000
vn 0.000000 -1.000000 0.000000
vn 0.000000 -1.000000 0.000000
vn 0.000000 0.000000 -1.000000
vn 0.000000 0.000000 -1.000000
vn 0.000000 0.000000 -1.000000
vn 0.000000 0.000000 -1.000000
vn 0.000000 0.000000 1.000000
vn 0.000000 0.000000 1.000000
vn 0.000000 0.000000 1.000000
vn 0.000000 0.000000 1.000000
vn 0.000000 0.000000 -1.000000
vn 0.000000 0.000000 -1.000000
vn 0.000000 0.000000 -1.000000
vn 0.000000 0.000000 -1.000000
vn 1.000000 0.000000 0.000000
vn 1.000000 0.000000 0.000000
vn 1.000000 0.000000 0.000000
vn 1.000000 0.000000 0.000000
vn 1.000000 0.000000 0.000744
vn 1.000000 0.000000 0.000000
s 1
g polySurface11
usemtl initialShadingGroup
f 1/1/1 2/2/2 3/3/3
f 3/3/3 2/2/2 4/4/4
s 2
f 5/5/5 6/6/6 7/16/7
f 7/7/7 6/15/6 8/8/8
s 3
f 9/9/9 10/10/10 11/14/11
f 11/11/11 10/13/10 12/12/12
s 4
f 14/17/13 16/18/14 13/19/15
f 13/19/15 16/18/14 15/20/16
f 18/21/17 16/22/14 17/23/18
f 17/23/18 16/22/14 14/24/13
s 5
f 19/25/19 24/26/20 20/27/21
f 20/27/21 24/26/20 23/28/22
f 22/29/23 24/30/20 21/31/24
f 21/31/24 24/30/20 19/32/19
s 6
f 25/33/25 26/34/26 27/35/27
f 27/35/27 26/34/26 28/36/28
s 7
f 27/37/29 28/38/30 29/39/31
f 29/39/31 28/38/30 30/40/32
s 8
f 29/41/33 30/42/34 31/43/35
f 31/43/35 30/42/34 32/44/36
s 9
f 31/45/37 32/46/38 25/47/39
f 25/47/39 32/46/38 26/48/40
s 10
f 26/49/41 32/50/42 28/51/43
f 28/51/43 32/50/42 30/52/44
s 11
f 31/53/45 25/54/46 29/55/47
f 29/55/47 25/54/46 27/56/48
s 12
f 33/57/49 34/58/50 35/59/51
f 35/59/51 34/58/50 36/60/52
s 13
f 35/61/53 36/62/54 37/63/55
f 37/63/55 36/62/54 38/64/56
s 14
f 37/65/57 38/66/58 39/67/59
f 39/67/59 38/66/58 40/68/60
s 15
f 39/69/61 40/70/62 33/71/63
f 33/71/63 40/70/62 34/72/64
s 16
f 34/73/65 40/74/66 36/75/67
f 36/75/67 40/74/66 38/76/68
s 17
f 39/77/69 33/78/70 37/79/71
f 37/79/71 33/78/70 35/80/72
s 18
f 41/81/73 42/82/74 43/83/75
f 43/83/75 42/82/74 44/84/76
s 19
f 45/85/77 47/86/78 46/87/79
f 47/86/78 48/88/80 46/87/79
s 20
f 49/89/81 50/90/82 51/91/83
f 51/91/83 50/90/82 52/92/84
s 21
f 53/93/85 58/94/86 54/95/87
f 54/95/87 58/94/86 57/96/88
f 56/97/89 58/98/86 55/99/90
f 55/99/90 58/98/86 53/100/85
s 22
f 59/101/91 60/102/92 61/103/93
f 61/103/93 60/102/92 62/104/94
s 23
f 61/105/95 62/106/96 63/107/97
f 63/107/97 62/106/96 64/108/98
s 24
f 63/109/99 64/110/100 65/111/101
f 65/111/101 64/110/100 66/112/102
s 25
f 65/113/103 66/114/104 59/115/105
f 59/115/105 66/114/104 60/116/106
s 26
f 60/117/107 66/118/108 62/119/109
f 62/119/109 66/118/108 64/120/110
s 27
f 65/121/111 59/122/112 63/123/113
f 63/123/113 59/122/112 61/124/114
s 28
f 67/125/115 68/126/116 69/127/117
f 69/127/117 68/126/116 70/128/118
s 29
f 71/129/119 72/130/120 73/131/121
f 73/131/121 72/130/120 74/132/122
s 30
f 75/133/123 76/134/124 77/135/125
f 77/135/125 76/134/124 78/136/126
s 31
f 77/137/127 78/138/128 79/139/129
f 79/139/129 78/138/128 80/140/130
s 32
f 79/141/131 80/142/132 81/143/133
f 81/143/133 80/142/132 82/144/134
s 33
f 81/145/135 82/146/136 75/147/137
f 75/147/137 82/146/136 76/148/138
s 34
f 76/149/139 82/150/140 78/151/141
f 78/151/141 82/150/140 80/152/142
s 35
f 81/153/143 75/154/144 79/155/145
f 79/155/145 75/154/144 77/156/146
s 36
f 83/157/147 85/158/148 84/159/149
f 85/158/148 86/160/150 84/159/149
s 37
f 88/161/151 90/162/152 87/163/153
f 87/163/153 90/162/152 89/164/154
f 92/165/155 90/166/152 91/167/156
f 91/167/156 90/166/152 88/168/151
